<svg version="1.2" xmlns="http://www.w3.org/2000/svg" viewBox="0 0 1656 157" width="1656" height="157">
	<style>
		.s0 { fill: #ffffff } 
	</style>
	<path class="s0" d="m447.92 72.37l2.28 0.48-8.02 25.44h-72.58v-2.56h3.53q5.94 0 8.5-3.87 1.45-2.21 1.45-10.23v-60.48q0-8.77-1.93-10.99-2.7-3.04-8.02-3.04h-3.53v-2.56h42.44v2.56q-7.47-0.07-10.47 1.38-3.01 1.45-4.11 3.67-1.11 2.22-1.11 10.57v58.89q0 5.75 1.11 7.88 0.82 1.45 2.56 2.15 1.73 0.69 10.78 0.69h6.84q10.79 0 15.14-1.59 4.36-1.59 7.95-5.64 3.6-4.04 7.19-12.75zm31.59-39.27v50.88q0 5.94 0.87 7.91 0.86 1.97 2.56 2.94 1.69 0.97 6.19 0.97v2.49h-30.76v-2.49q4.62 0 6.22-0.9 1.59-0.9 2.52-2.97 0.93-2.08 0.93-7.95v-24.4q0-10.31-0.62-13.35-0.48-2.2-1.52-3.08-1.04-0.86-2.84-0.86-1.94 0-4.7 1.03l-0.97-2.49 19.08-7.75h3.04zm-5.73-33.1q2.9 0 4.94 2.04 2.04 2.04 2.04 4.95 0 2.9-2.04 4.97-2.04 2.07-4.94 2.07-2.91 0-4.98-2.07-2.07-2.07-2.07-4.97 0-2.9 2.04-4.95 2.03-2.04 5.01-2.04zm41.67 46.52q11.13-13.41 21.22-13.41 5.19 0 8.92 2.6 3.73 2.58 5.94 8.54 1.52 4.14 1.52 12.71v27.03q0 6.02 0.97 8.15 0.76 1.73 2.45 2.7 1.69 0.97 6.26 0.97v2.49h-31.31v-2.5h1.31q4.42 0 6.19-1.35 1.76-1.35 2.45-3.98 0.28-1.04 0.28-6.49v-25.92q0-8.64-2.25-12.55-2.25-3.9-7.57-3.9-8.23 0-16.38 8.98v33.39q0 6.42 0.76 7.95 0.96 1.99 2.66 2.94 1.69 0.93 6.88 0.93v2.49h-31.31v-2.49h1.38q4.84 0 6.53-2.46 1.69-2.45 1.69-9.36v-23.5q0-11.4-0.52-13.89-0.53-2.49-1.59-3.39-1.07-0.9-2.87-0.89-1.94 0-4.63 1.03l-1.04-2.49 19.08-7.75h2.97c0 0 0 13.42 0.01 13.42zm97.05 44.65q-4.64 4.84-9.05 6.95-4.42 2.11-9.54 2.11-10.37 0-18.11-8.68-7.74-8.67-7.74-22.29-0.01-13.61 8.57-24.92 8.56-11.3 22.05-11.3 8.37 0 13.83 5.32v-11.68q0-10.86-0.52-13.35-0.52-2.49-1.63-3.38-1.11-0.9-2.77-0.9-1.8 0-4.77 1.11l-0.9-2.42 18.87-7.74h3.11v73.2q0 11.13 0.52 13.59 0.52 2.45 1.66 3.42 1.14 0.97 2.66 0.97 1.86 0 4.98-1.18l0.76 2.42-18.8 7.81h-3.18zm0-4.84v-32.62q-0.42-4.7-2.49-8.57-2.07-3.87-5.49-5.84-3.42-1.97-6.67-1.97-6.08 0.01-10.85 5.46-6.29 7.19-6.29 21.01 0 13.96 6.08 21.4 6.08 7.43 13.55 7.43 6.28-0.02 12.16-6.3zm61.93 2.83q-9.74 7.54-12.24 8.71-3.73 1.73-7.95 1.73-6.57 0-10.81-4.49-4.26-4.5-4.25-11.82 0-4.63 2.07-8.02 2.83-4.7 9.85-8.84 7.02-4.15 23.33-10.09v-2.49q0-9.47-3.01-13-3-3.53-8.74-3.53-4.36 0-6.91 2.35-2.63 2.35-2.63 5.4l0.14 4.01q0 3.17-1.62 4.91-1.62 1.72-4.25 1.72-2.56 0-4.18-1.8-1.62-1.79-1.63-4.91 0-5.94 6.08-10.92 6.08-4.98 17.07-4.98 8.43 0 13.82 2.84 4.08 2.15 6.01 6.71 1.24 2.98 1.24 12.17v21.5q0 9.06 0.35 11.09 0.35 2.04 1.14 2.73 0.8 0.7 1.83 0.7 1.1 0 1.93-0.49 1.45-0.9 5.6-5.05v3.87q-7.74 10.38-14.79 10.37-3.38 0-5.39-2.35-1.98-2.36-2.06-8.03zm0-4.49v-24.12q-10.44 4.14-13.48 5.88-5.46 3.04-7.81 6.36-2.35 3.31-2.35 7.26 0 4.98 2.97 8.26 2.97 3.28 6.84 3.28 5.27-0.01 13.83-6.92zm87.03-36.63h43.54v-26.82q0-7.19-0.9-9.47-0.69-1.74-2.91-2.97-2.97-1.66-6.29-1.66h-3.32v-2.56h40.09v2.56h-3.32q-3.32 0-6.29 1.59-2.22 1.11-3.01 3.35-0.79 2.25-0.79 9.16v60.48q0 7.12 0.9 9.4 0.69 1.73 2.83 2.97 3.05 1.66 6.36 1.66h3.32v2.56h-40.09v-2.56h3.32q5.73 0 8.36-3.38 1.73-2.22 1.73-10.65v-28.54h-43.54v28.54q0 7.12 0.9 9.4 0.69 1.73 2.9 2.97 2.97 1.66 6.29 1.66h3.39v2.56h-40.16v-2.56h3.32q5.81 0 8.43-3.38 1.66-2.22 1.66-10.65v-60.48q0-7.19-0.9-9.47-0.69-1.74-2.84-2.97-3.04-1.66-6.36-1.66h-3.32v-2.56h40.16v2.56h-3.39q-3.32 0-6.29 1.59-2.14 1.11-2.97 3.35-0.83 2.25-0.83 9.16v26.82zm88.2 10.78q-0.07 14.1 6.84 22.12 6.91 8.02 16.24 8.02 6.22 0 10.82-3.43 4.59-3.42 7.71-11.72l2.14 1.39q-1.45 9.47-8.43 17.24-6.97 7.78-17.49 7.77-11.4 0-19.53-8.88-8.12-8.88-8.12-23.88 0-16.24 8.33-25.33 8.33-9.09 20.91-9.09 10.65 0 17.49 7.02 6.84 7.02 6.84 18.76h-43.75zm0-4.01h29.3q-0.34-6.09-1.45-8.57-1.73-3.86-5.15-6.08-3.42-2.22-7.15-2.21-5.74-0.01-10.27 4.46-4.53 4.44-5.28 12.4zm70.63-8.29q11.13-13.41 21.22-13.41 5.19 0 8.92 2.6 3.74 2.58 5.94 8.54 1.52 4.14 1.52 12.71v27.03q0 6.02 0.97 8.15 0.76 1.73 2.45 2.7 1.69 0.97 6.26 0.97v2.49h-31.31v-2.5h1.31q4.42 0 6.19-1.35 1.76-1.35 2.45-3.98 0.28-1.04 0.28-6.49v-25.92q0-8.64-2.25-12.55-2.25-3.9-7.57-3.9-8.23 0-16.38 8.98v33.39q0 6.42 0.76 7.95 0.96 1.99 2.66 2.94 1.69 0.93 6.88 0.93v2.49h-31.31v-2.49h1.38q4.84 0 6.53-2.46 1.69-2.45 1.69-9.36v-23.5q0-11.4-0.52-13.89-0.52-2.49-1.59-3.39-1.07-0.9-2.87-0.89-1.94 0-4.63 1.03l-1.04-2.49 19.08-7.75h2.97c0 0 0 13.42 0.01 13.42zm112.36-12.7q0.76-0.26 1.19-0.89c0.28-0.51 0.42-1.28 0.42-2.42q-0.01-1.58-0.48-2.18c-0.24-0.45-0.67-0.79-1.22-0.95-0.2-0.07-0.62-0.19-3.42-0.19h-11.69c-4.07-2.36-8.9-3.56-14.36-3.56-6.85 0-12.56 1.92-16.96 5.71-4.42 3.8-6.66 8.4-6.66 13.69 0 3.45 0.99 6.66 2.94 9.51q2.56 3.74 7.03 6.06c-3.7 2.86-6.06 5.07-7.19 6.74-1.29 1.91-1.91 3.56-1.91 5.03q0 2.09 1.58 3.69c0.79 0.81 2 1.69 3.7 2.67-4.47 4.19-5.29 5.01-5.48 5.23-2.26 2.53-3.72 4.47-4.46 5.92q-0.77 1.51-0.78 3.06c0 2.32 1.72 4.52 5.11 6.56 5.63 3.31 12.61 4.99 20.74 4.99 10.57 0 19.28-2.81 25.89-8.37 4.57-3.84 6.89-8.03 6.89-12.47 0-3.27-1.26-6.08-3.74-8.33-2.44-2.22-5.74-3.59-9.77-4.1-2.54-0.33-7.98-0.59-16.64-0.79-4.56-0.11-7.43-0.23-8.54-0.39-2.29-0.29-3.12-0.76-3.41-1.02q-0.71-0.62-0.71-1.17 0-0.87 0.83-2.25 0.82-1.33 3.04-3.11 4.26 1.01 8.34 1.01c7.05 0 12.76-1.79 16.98-5.31 4.25-3.53 6.4-7.86 6.4-12.86q0-5.43-2.55-9.29h5.41c2.63 0.01 3.17-0.11 3.48-0.22zm-45.48 48.88q1.33-2.19 3.88-4.73c5 0.6 12.06 1.01 20.98 1.22 6.2 0.14 10.36 0.6 12.37 1.37 1.72 0.66 2.53 1.7 2.53 3.25 0 2.34-1.64 4.63-4.88 6.79-3.32 2.22-8.64 3.35-15.81 3.35-7.58 0-13.41-1.11-17.34-3.31-2.08-1.16-3.1-2.42-3.1-3.87q0.02-1.83 1.37-4.07zm23.42-28.61c-1.83 1.91-4.11 2.84-6.95 2.84-2.99 0-5.4-1.08-7.35-3.32-2.65-3.04-3.99-7.43-3.99-13.05 0-4.28 0.96-7.46 2.85-9.46 1.87-1.99 4.13-2.95 6.88-2.95 2.99 0 5.37 1.08 7.29 3.3 2.69 3.16 4.06 7.62 4.06 13.28 0 4.29-0.94 7.43-2.79 9.36zm121.7 44.2l-36.22-78.86v62.62q0 8.65 1.87 10.79 2.56 2.9 8.09 2.9h3.32v2.56h-32.62v-2.56h3.32q5.94 0 8.43-3.59 1.52-2.22 1.52-10.09v-61.25q0-6.22-1.38-8.99-0.97-2.01-3.56-3.35-2.6-1.34-8.33-1.35v-2.56h26.54l34.01 73.34 33.45-73.34h26.54v2.56h-3.25q-6.01 0-8.5 3.59-1.52 2.22-1.52 10.09v61.24q0 8.65 1.93 10.79 2.55 2.9 8.09 2.9h3.25v2.56h-39.81v-2.56h3.32q6.02 0 8.43-3.59 1.52-2.22 1.52-10.09v-62.62l-36.15 78.86zm83.01-39.47q-0.07 14.1 6.84 22.12 6.91 8.02 16.24 8.02 6.22 0 10.82-3.43 4.59-3.42 7.71-11.72l2.14 1.39q-1.45 9.47-8.43 17.24-6.97 7.78-17.49 7.77-11.4 0-19.53-8.88-8.12-8.88-8.12-23.88 0-16.24 8.33-25.33 8.33-9.09 20.91-9.09 10.65 0 17.49 7.02 6.84 7.02 6.84 18.76h-43.75zm0-4.01h29.3q-0.34-6.09-1.45-8.57-1.73-3.86-5.15-6.08-3.42-2.22-7.15-2.21-5.74-0.01-10.27 4.46-4.52 4.44-5.28 12.4zm96.91 36.36q-4.64 4.84-9.05 6.95-4.42 2.1-9.54 2.11-10.37 0-18.11-8.68-7.74-8.67-7.74-22.29 0-13.62 8.57-24.92 8.57-11.3 22.05-11.3 8.37 0 13.83 5.32v-11.68q0-10.86-0.52-13.35-0.52-2.49-1.63-3.38-1.11-0.9-2.77-0.9-1.8 0-4.77 1.11l-0.9-2.42 18.87-7.74h3.11v73.2q0 11.13 0.52 13.59 0.52 2.45 1.66 3.42 1.14 0.97 2.66 0.97 1.86 0 4.98-1.18l0.76 2.42-18.8 7.81h-3.18zm0-4.84v-32.62q-0.42-4.7-2.49-8.57-2.07-3.87-5.49-5.84-3.42-1.97-6.67-1.97-6.08 0.01-10.85 5.46-6.29 7.19-6.29 21.01 0 13.96 6.08 21.4 6.08 7.43 13.55 7.43 6.28-0.02 12.16-6.3zm47.9-53.23v50.88q0 5.94 0.87 7.91 0.86 1.96 2.56 2.94 1.69 0.97 6.19 0.97v2.49h-30.76v-2.49q4.63 0 6.22-0.9 1.59-0.9 2.52-2.97 0.93-2.08 0.93-7.95v-24.4q0-10.31-0.62-13.35-0.48-2.2-1.52-3.08-1.04-0.86-2.84-0.86-1.94 0-4.7 1.03l-0.97-2.49 19.08-7.75h3.04zm-5.74-33.1q2.9 0 4.94 2.04 2.04 2.04 2.04 4.95 0 2.9-2.04 4.97-2.04 2.07-4.94 2.07-2.91 0-4.98-2.07-2.07-2.07-2.07-4.97 0-2.9 2.04-4.95 2.04-2.04 5.01-2.04zm59.1 89.16q-9.74 7.54-12.24 8.71-3.73 1.73-7.95 1.73-6.57 0-10.81-4.49-4.25-4.5-4.25-11.82 0-4.63 2.07-8.02 2.83-4.7 9.85-8.84 7.02-4.15 23.33-10.09v-2.49q0-9.47-3.01-13-3-3.53-8.74-3.53-4.36 0-6.91 2.35-2.63 2.35-2.63 5.4l0.14 4.01q0 3.17-1.62 4.91-1.62 1.72-4.25 1.72-2.56 0-4.18-1.8-1.63-1.79-1.63-4.91 0-5.94 6.08-10.92 6.08-4.98 17.07-4.98 8.43 0 13.82 2.84 4.08 2.15 6.01 6.71 1.24 2.98 1.24 12.17v21.5q0 9.05 0.35 11.09 0.34 2.04 1.14 2.73 0.79 0.7 1.83 0.7 1.1-0.01 1.93-0.49 1.45-0.9 5.6-5.05v3.87q-7.74 10.37-14.79 10.37-3.39-0.01-5.39-2.35-1.99-2.36-2.06-8.03zm0-4.49v-24.12q-10.44 4.14-13.48 5.88-5.46 3.04-7.81 6.36-2.35 3.31-2.35 7.26 0 4.98 2.97 8.26 2.97 3.28 6.84 3.28 5.27-0.01 13.83-6.92zm45.34-70.5v20.81h14.79v4.84h-14.79v41.06q0 6.15 1.76 8.29 1.76 2.15 4.53 2.15 2.28 0 4.42-1.42 2.14-1.42 3.32-4.18h2.69q-2.41 6.77-6.84 10.2-4.42 3.42-9.12 3.43-3.18 0-6.22-1.77-3.04-1.76-4.49-5.05-1.45-3.28-1.45-10.12v-42.6h-10.02v-2.28q3.8-1.53 7.78-5.15 3.98-3.63 7.08-8.61 1.58-2.62 4.43-9.61c0 0 2.13 0 2.13 0.01zm42.79 18.93v50.88q0 5.94 0.87 7.91 0.86 1.96 2.56 2.94 1.69 0.97 6.19 0.97v2.49h-30.76v-2.49q4.62 0 6.22-0.9 1.59-0.9 2.52-2.97 0.93-2.08 0.93-7.95v-24.4q0-10.31-0.62-13.35-0.48-2.2-1.52-3.08-1.04-0.86-2.84-0.86-1.94 0-4.7 1.03l-0.97-2.49 19.08-7.75h3.04zm-5.74-33.1q2.9 0 4.94 2.04 2.04 2.04 2.04 4.95 0 2.9-2.04 4.97-2.04 2.07-4.94 2.07-2.91 0-4.98-2.07-2.07-2.07-2.07-4.97 0-2.9 2.04-4.95 2.04-2.04 5.01-2.04zm54.19 33.1q14.38 0 23.09 10.92 7.4 9.34 7.4 21.43 0 8.51-4.08 17.21-4.08 8.7-11.23 13.13-7.15 4.42-15.93 4.42-14.31 0-22.74-11.4-7.12-9.61-7.12-21.56 0-8.71 4.32-17.32 4.32-8.61 11.37-12.72 7.04-4.1 14.92-4.11zm-2.14 4.5q-3.66 0-7.36 2.18-3.7 2.17-5.98 7.64-2.28 5.46-2.28 14.03 0 13.83 5.49 23.85 5.5 10.02 14.48 10.02 6.71 0 11.06-5.53 4.36-5.53 4.36-19.01 0-16.86-7.26-26.54-4.9-6.64-12.51-6.64zm60.41 8.92q11.13-13.41 21.22-13.41 5.19 0 8.92 2.6 3.74 2.58 5.94 8.54 1.52 4.14 1.52 12.71v27.03q0 6.02 0.97 8.15 0.76 1.73 2.45 2.7 1.69 0.97 6.26 0.97v2.49h-31.31v-2.5h1.31q4.42 0 6.19-1.35 1.76-1.35 2.45-3.98 0.28-1.04 0.28-6.49v-25.92q0-8.64-2.25-12.55-2.25-3.9-7.57-3.9-8.23 0-16.38 8.98v33.39q0 6.42 0.76 7.95 0.96 1.99 2.66 2.94 1.69 0.93 6.88 0.93v2.49h-31.31v-2.49h1.38q4.84 0 6.53-2.46 1.69-2.45 1.69-9.36v-23.5q0-11.4-0.52-13.89-0.52-2.49-1.59-3.39-1.07-0.9-2.87-0.89-1.94 0-4.63 1.03l-1.04-2.49 19.08-7.75h2.97c0 0 0 13.42 0.01 13.42z"/>
	<path class="s0" d="m395.94 124.96v25.77h-3.39v-19.21l-8.56 19.21h-2.38l-8.6-19.25v19.25h-3.39v-25.77h3.65l9.53 21.3 9.53-21.3zm19.55 2.56v8.68h9.46v2.79h-9.46v8.94h10.57v2.79h-13.96v-25.99h13.96v2.79zm41.57-1.17q3.1 1.58 4.77 4.52 1.65 2.94 1.65 6.92 0 3.99-1.65 6.91-1.66 2.92-4.77 4.47-3.11 1.54-7.35 1.54h-8.08v-25.96h8.08q4.24 0.03 7.35 1.6zm0.32 18.92q2.64-2.66 2.64-7.47 0-4.84-2.66-7.56-2.66-2.72-7.65-2.72h-4.69v20.41h4.69q5.02 0 7.67-2.66zm24.38-20.5v25.96h-3.39v-25.96zm31.54 20.18h-11.32l-2.08 5.77h-3.57l9.38-25.8h3.91l9.35 25.8h-3.57zm-0.97-2.75l-4.69-13.11-4.69 13.11zm37.13-17.43v2.76h-7.07v23.2h-3.39v-23.2h-7.11v-2.76zm17.98 0v25.96h-3.39v-25.96zm21.38 24.52q-2.98-1.7-4.71-4.73-1.73-3.05-1.73-6.84 0-3.8 1.73-6.83 1.74-3.04 4.71-4.73 2.98-1.69 6.59-1.69 3.64 0 6.63 1.69 2.98 1.7 4.69 4.71 1.71 3.02 1.71 6.85 0 3.84-1.71 6.85-1.71 3.02-4.69 4.71-2.99 1.69-6.63 1.69-3.62 0.02-6.59-1.68zm11.48-2.51q2.17-1.26 3.43-3.61 1.25-2.35 1.25-5.44 0-3.14-1.25-5.45-1.25-2.33-3.41-3.59-2.16-1.27-4.92-1.27-2.76 0-4.91 1.27-2.16 1.26-3.41 3.59-1.25 2.33-1.25 5.45 0 3.09 1.25 5.44 1.24 2.34 3.43 3.61 2.17 1.27 4.89 1.27 2.73-0.01 4.9-1.27zm43.44 3.94h-3.39l-13.63-20.67v20.67h-3.39v-25.99h3.39l13.63 20.63v-20.63h3.39zm19.69-4.69l-4.17 10.01h-2.27l2.72-10.01zm50.64-21.26v2.76h-7.07v23.2h-3.39v-23.2h-7.11v-2.76zm28.27 25.95l-6.18-10.61h-4.1v10.61h-3.39v-25.96h8.38q2.94 0 4.97 1.01 2.03 1 3.03 2.71 1.01 1.72 1.01 3.91 0 2.69-1.55 4.73-1.55 2.06-4.64 2.72l6.52 10.87c0 0-4.05 0-4.05 0.01zm-10.28-13.33h4.99q2.76 0 4.13-1.36 1.38-1.36 1.38-3.63 0-2.31-1.36-3.58-1.36-1.26-4.15-1.27h-4.99zm45.01 7.56h-11.32l-2.08 5.77h-3.57l9.38-25.8h3.91l9.35 25.8h-3.57zm-0.96-2.75l-4.69-13.11-4.69 13.11zm24.54-17.43v25.96h-3.39v-25.96zm36.6 25.95h-3.39l-13.63-20.67v20.67h-3.39v-25.99h3.39l13.63 20.63v-20.63h3.39zm19.58-25.95v25.96h-3.39v-25.96zm36.61 25.95h-3.39l-13.63-20.67v20.67h-3.39v-25.99h3.39l13.63 20.63v-20.63h3.39zm35.85-18.42q-1.08-2.28-3.13-3.52-2.04-1.26-4.77-1.25-2.72-0.01-4.89 1.25-2.18 1.25-3.43 3.57-1.25 2.34-1.25 5.38-0.01 3.05 1.25 5.36 1.24 2.31 3.43 3.56 2.17 1.25 4.89 1.25 3.8 0 6.26-2.27 2.45-2.27 2.87-6.15h-10.35v-2.76h13.96v2.6q-0.3 3.2-2.01 5.87-0.42 0.66-0.92 1.26-0.5 0.6-1.07 1.13-0.57 0.53-1.2 0.98-0.63 0.46-1.32 0.83-2.79 1.55-6.22 1.55-3.61 0-6.59-1.69-2.99-1.69-4.71-4.71-1.73-3.02-1.73-6.81 0-3.8 1.73-6.83 1.74-3.04 4.71-4.73 2.98-1.69 6.59-1.69 4.14 0 7.32 2.05 3.18 2.05 4.64 5.77zm55.45 12.65h-11.32l-2.08 5.77h-3.57l9.38-25.8h3.91l9.35 25.8h-3.57zm-0.97-2.75l-4.69-13.11-4.69 13.11zm41.55 8.52h-3.39l-13.63-20.67v20.67h-3.39v-25.99h3.39l13.63 20.63v-20.63h3.39zm31.64-24.37q3.1 1.58 4.77 4.52 1.65 2.94 1.65 6.92 0 3.99-1.65 6.91-1.66 2.93-4.77 4.47-3.11 1.54-7.35 1.54h-8.08v-25.96h8.08q4.23 0.03 7.35 1.6zm0.31 18.92q2.64-2.65 2.64-7.47 0-4.84-2.66-7.56-2.66-2.72-7.65-2.72h-4.69v20.41h4.69q5.03 0 7.67-2.66zm41.82-14.37q1.71-3.04 4.67-4.75 2.96-1.71 6.57-1.72 4.24 0 7.41 2.05 3.17 2.05 4.61 5.81h-4.06q-1.08-2.34-3.11-3.61-2.03-1.26-4.86-1.27-2.72 0-4.88 1.27-2.16 1.26-3.39 3.59-1.23 2.33-1.23 5.45 0 3.09 1.23 5.42 1.23 2.33 3.39 3.59 2.16 1.27 4.88 1.27 2.84 0 4.86-1.24 2.03-1.25 3.11-3.59h4.06q-1.46 3.72-4.61 5.75-3.17 2.03-7.41 2.03-3.62 0-6.57-1.69-2.96-1.69-4.67-4.71-1.71-3.02-1.71-6.81 0-3.8 1.71-6.84zm43.9 18.39q-2.99-1.7-4.71-4.73-1.73-3.04-1.73-6.84 0-3.8 1.73-6.83 1.74-3.04 4.71-4.73 2.98-1.69 6.59-1.69 3.64 0.01 6.63 1.69 2.98 1.7 4.69 4.71 1.71 3.02 1.71 6.85 0 3.84-1.71 6.85-1.72 3.02-4.69 4.71-2.99 1.69-6.63 1.69-3.62 0.02-6.59-1.68zm11.48-2.51q2.17-1.26 3.43-3.61 1.25-2.34 1.25-5.44 0-3.14-1.25-5.45-1.25-2.33-3.41-3.59-2.16-1.26-4.92-1.27-2.76 0-4.91 1.27-2.16 1.26-3.41 3.59-1.25 2.33-1.25 5.45-0.01 3.1 1.25 5.44 1.24 2.34 3.43 3.61 2.17 1.27 4.89 1.27 2.73-0.01 4.9-1.27zm43.44 3.94h-3.39l-13.63-20.67v20.67h-3.39v-25.99h3.39l13.63 20.63v-20.63h3.39zm30.87-25.95v2.76h-11.28v8.75h9.16v2.76h-9.16v11.69h-3.39v-25.96zm17.91 23.2h9.09v2.76h-12.48v-25.96h3.39zm26.51-23.2v25.96h-3.39v-25.96zm16.64 6.13q1.71-3.04 4.67-4.75 2.96-1.71 6.57-1.72 4.24 0 7.41 2.05 3.17 2.05 4.61 5.81h-4.06q-1.08-2.35-3.11-3.61-2.02-1.26-4.86-1.27-2.72 0-4.88 1.27-2.16 1.26-3.39 3.59-1.23 2.33-1.23 5.45 0 3.09 1.23 5.42 1.23 2.33 3.39 3.59 2.16 1.27 4.88 1.27 2.84 0 4.86-1.24 2.03-1.26 3.11-3.59h4.06q-1.46 3.72-4.61 5.75-3.16 2.03-7.41 2.03-3.62-0.01-6.57-1.69-2.96-1.69-4.67-4.71-1.71-3.02-1.71-6.81 0-3.8 1.71-6.84zm54.7-6.13v2.76h-7.07v23.2h-3.39v-23.2h-7.11v-2.76zm35.41 6.13q1.71-3.04 4.67-4.75 2.96-1.71 6.57-1.72 4.24 0 7.41 2.05 3.17 2.05 4.61 5.81h-4.06q-1.08-2.35-3.11-3.61-2.02-1.26-4.86-1.27-2.72 0-4.88 1.27-2.16 1.26-3.39 3.59-1.23 2.33-1.23 5.45 0 3.09 1.23 5.42 1.23 2.33 3.39 3.59 2.16 1.27 4.88 1.27 2.84 0 4.86-1.24 2.03-1.26 3.11-3.59h4.06q-1.46 3.72-4.61 5.75-3.16 2.03-7.41 2.03-3.62-0.01-6.57-1.69-2.96-1.69-4.67-4.71-1.71-3.02-1.71-6.81 0-3.8 1.71-6.84zm43.91 18.39q-2.99-1.7-4.71-4.73-1.73-3.04-1.73-6.84 0-3.8 1.73-6.83 1.74-3.04 4.71-4.73 2.98-1.69 6.59-1.69 3.64 0 6.63 1.69 2.98 1.7 4.69 4.71 1.71 3.02 1.71 6.85 0 3.84-1.71 6.85-1.72 3.02-4.69 4.71-2.99 1.69-6.63 1.69-3.62 0.02-6.59-1.68zm11.48-2.51q2.17-1.26 3.43-3.61 1.25-2.34 1.25-5.44 0.01-3.14-1.25-5.45-1.25-2.33-3.41-3.59-2.16-1.26-4.92-1.27-2.76 0-4.91 1.27-2.16 1.26-3.41 3.59-1.25 2.33-1.25 5.45-0.01 3.1 1.25 5.44 1.24 2.34 3.43 3.61 2.18 1.27 4.89 1.27 2.73-0.01 4.9-1.27zm38.37-1.83h-11.32l-2.08 5.77h-3.57l9.38-25.8h3.91l9.35 25.8h-3.57zm-0.97-2.75l-4.69-13.11-4.69 13.11zm21.6-11.3q1.71-3.04 4.67-4.75 2.96-1.71 6.57-1.72 4.24 0 7.41 2.05 3.17 2.05 4.61 5.81h-4.06q-1.08-2.34-3.11-3.61-2.02-1.26-4.86-1.27-2.72 0-4.88 1.27-2.16 1.26-3.39 3.59-1.23 2.33-1.23 5.45 0 3.09 1.23 5.42 1.23 2.33 3.39 3.59 2.16 1.27 4.88 1.27 2.84 0 4.86-1.24 2.03-1.26 3.11-3.59h4.06q-1.46 3.72-4.61 5.75-3.17 2.03-7.41 2.03-3.61 0-6.57-1.69-2.96-1.69-4.67-4.71-1.71-3.01-1.71-6.81 0-3.8 1.71-6.84zm58.72-6.13v25.96h-3.39v-11.77h-13.22v11.77h-3.39v-25.96h3.39v11.4h13.22v-11.4zm19.59 0v25.96h-3.39v-25.96zm36.6 25.95h-3.39l-13.63-20.67v20.67h-3.39v-25.99h3.39l13.63 20.63v-20.63h3.39zm35.86-18.42q-1.08-2.28-3.13-3.52-2.04-1.25-4.77-1.25-2.72 0-4.89 1.25-2.18 1.25-3.43 3.57-1.25 2.34-1.25 5.38-0.01 3.06 1.25 5.36 1.24 2.31 3.43 3.56 2.17 1.26 4.89 1.25 3.8 0 6.26-2.27 2.45-2.27 2.87-6.15h-10.35v-2.76h13.96v2.6q-0.3 3.21-2.01 5.87-0.42 0.66-0.92 1.26-0.5 0.6-1.07 1.13-0.57 0.53-1.2 0.98-0.63 0.46-1.32 0.83-2.79 1.55-6.22 1.55-3.61 0-6.59-1.69-2.99-1.69-4.71-4.71-1.73-3.01-1.73-6.81 0-3.8 1.73-6.83 1.74-3.04 4.71-4.73 2.98-1.69 6.59-1.69 4.14 0 7.32 2.05 3.18 2.05 4.64 5.77zm-1645.11-127.74h34.23v146.52h-34.23zm76.04 146.52h28.61v-36.14q-3.92 7.68-8.43 14.61-3.92 5.88-9.11 11.97-5.21 6.09-11.07 9.56z"/>
	<path class="s0" d="m138.93 4.56h-6.32q-3.02 0-5.54 0.1-2.54 0.1-5.45 0.29v11.74q0 5.47 0.09 12.42 0.1 6.94 0.1 14.38v17.21h-68.9v34.04h34.65q4.65 0 10.22 0.1 5.58 0.1 11.32 0.1c4.01 0 8.27 0.01 12.71 0.04v56.1h34.04c0-1.3 0.26-121.09 0.39-146.52z"/>
	<path class="s0" d="m283.25 4.56h-7.43l-32.28 62.93-32.28-62.93h-42.84l75.12 146.72 39.71-77.56v77.56h35.41v-146.72z"/>
</svg>